<svg width="8" height="4" viewBox="0 0 8 4" fill="none" xmlns="http://www.w3.org/2000/svg">
<path id="Vector" d="M0.218599 0.168613C0.5193 -0.0476391 0.937938 -0.0646096 1.30554 0.168613L4.00082 1.98542L6.69609 0.168613C7.0637 -0.0646096 7.48302 -0.0476391 7.78166 0.168613C8.08236 0.384381 8.06305 0.749003 7.78166 0.951679C7.50164 1.15436 4.5436 3.13457 4.5436 3.13457C4.47316 3.18589 4.38873 3.22671 4.29536 3.25459C4.20198 3.28248 4.10157 3.29684 4.00013 3.29684C3.89868 3.29684 3.79827 3.28248 3.7049 3.25459C3.61152 3.22671 3.5271 3.18589 3.45666 3.13457C3.45666 3.13457 0.499989 1.15436 0.218599 0.951679C-0.0634812 0.749003 -0.0821026 0.384381 0.218599 0.168613Z" fill="#858585"/>
</svg>
