<svg width="123" height="24" fill="none" xmlns="http://www.w3.org/2000/svg"><path d="M33.81 15.936a5.355 5.355 0 0 1-2.057-2.01c-.503-.861-.766-1.818-.766-2.919 0-1.077.263-2.034.766-2.895a5.355 5.355 0 0 1 2.058-2.01 5.786 5.786 0 0 1 2.847-.718c1.053 0 1.986.24 2.847.718a5.294 5.294 0 0 1 2.034 2.01c.503.861.742 1.818.742 2.895s-.24 2.058-.742 2.92a5.196 5.196 0 0 1-2.058 2.01 5.785 5.785 0 0 1-2.847.717 5.76 5.76 0 0 1-2.823-.718Zm4.595-1.699c.502-.31.909-.718 1.196-1.292.287-.55.43-1.196.43-1.938s-.143-1.388-.43-1.938c-.287-.55-.67-.981-1.196-1.268-.503-.288-1.1-.431-1.747-.431-.67 0-1.244.143-1.77.43-.503.288-.91.718-1.197 1.269-.287.55-.43 1.196-.43 1.938s.143 1.388.43 1.938c.287.55.694.981 1.196 1.292.503.311 1.101.455 1.771.455.67 0 1.244-.168 1.747-.455ZM47.33 8.064a3.663 3.663 0 0 1 1.723-.407c.742 0 1.436.191 2.034.55.598.36 1.076.886 1.435 1.58.36.67.527 1.46.527 2.368 0 .91-.168 1.7-.527 2.37-.358.693-.837 1.22-1.435 1.603a3.73 3.73 0 0 1-2.034.574c-.646 0-1.22-.144-1.7-.407a3.78 3.78 0 0 1-1.196-1.005v5.432h-2.2V7.8h2.2v1.268c.288-.407.67-.742 1.173-1.005Zm3.135 2.704a2.357 2.357 0 0 0-.862-.886 2.43 2.43 0 0 0-1.148-.31 2.1 2.1 0 0 0-1.125.31 2.356 2.356 0 0 0-.861.886 2.741 2.741 0 0 0-.335 1.364c0 .526.12.98.335 1.364.215.382.502.693.861.885.359.215.718.31 1.125.31a2.26 2.26 0 0 0 2.01-1.22c.215-.382.335-.86.335-1.387-.024-.479-.12-.933-.335-1.316ZM62.74 12.825h-6.39c.049.623.264 1.125.67 1.484.384.359.862.527 1.437.527.813 0 1.411-.36 1.746-1.053h2.393a4.112 4.112 0 0 1-1.46 2.081c-.717.55-1.603.814-2.632.814a4.766 4.766 0 0 1-2.273-.55 3.95 3.95 0 0 1-1.555-1.58c-.383-.694-.55-1.483-.55-2.368 0-.91.191-1.7.55-2.393a3.671 3.671 0 0 1 1.555-1.58c.67-.359 1.436-.55 2.297-.55.838 0 1.58.168 2.226.526.67.36 1.172.862 1.531 1.532.36.67.55 1.412.55 2.273-.047.311-.071.598-.095.838Zm-2.25-1.483c0-.574-.215-1.029-.622-1.364-.406-.335-.885-.502-1.46-.502-.55 0-1.004.167-1.387.502-.383.335-.598.79-.694 1.388h4.163v-.024ZM71.785 8.662c.646.67.957 1.58.957 2.752v5.144H70.54v-4.857c0-.694-.167-1.22-.526-1.603s-.814-.55-1.412-.55c-.622 0-1.1.19-1.436.55-.358.383-.526.909-.526 1.603v4.833H64.44V7.801h2.201v1.1c.287-.383.67-.67 1.125-.885a3.483 3.483 0 0 1 1.507-.335c1.03-.024 1.867.311 2.513.981ZM74.991 6.389c-.263-.24-.383-.55-.383-.933 0-.36.12-.67.383-.934.263-.263.574-.382.981-.382.383 0 .718.12.981.382.263.24.383.55.383.934 0 .359-.12.67-.383.933-.263.24-.574.383-.98.383-.384-.024-.719-.144-.982-.383ZM77.073 7.8v8.757H74.87V7.801h2.202ZM86.62 8.662c.646.67.957 1.58.957 2.752v5.144h-2.201v-4.857c0-.694-.168-1.22-.527-1.603s-.813-.55-1.411-.55c-.622 0-1.101.19-1.436.55-.359.383-.526.909-.526 1.603v4.833h-2.202V7.801h2.202v1.1c.287-.383.67-.67 1.124-.885a3.483 3.483 0 0 1 1.508-.335c1.029-.024 1.866.311 2.512.981Z" fill="#212529"></path><path d="M96.455 14.453h-4.403l-.718 2.105h-2.321l3.972-11.054h2.584l3.972 11.054h-2.345l-.741-2.105Zm-.599-1.771-1.603-4.618-1.603 4.618h3.206ZM104.399 8.064a3.662 3.662 0 0 1 1.723-.407 3.93 3.93 0 0 1 2.034.55c.598.36 1.076.886 1.435 1.58.359.67.527 1.46.527 2.368 0 .91-.168 1.7-.527 2.37-.359.693-.837 1.22-1.435 1.603a3.734 3.734 0 0 1-2.034.574c-.646 0-1.221-.144-1.699-.407a3.775 3.775 0 0 1-1.197-1.005v5.432h-2.201V7.8h2.201v1.268a3.23 3.23 0 0 1 1.173-1.005Zm3.134 2.704a2.352 2.352 0 0 0-.861-.886 2.43 2.43 0 0 0-1.149-.31c-.406 0-.765.095-1.124.31a2.362 2.362 0 0 0-.862.886 2.745 2.745 0 0 0-.335 1.364c0 .526.12.98.335 1.364.216.382.503.693.862.885.359.215.718.31 1.124.31a2.256 2.256 0 0 0 2.01-1.22c.216-.382.335-.86.335-1.387-.024-.479-.119-.933-.335-1.316ZM115.119 8.064a3.658 3.658 0 0 1 1.722-.407c.742 0 1.436.191 2.034.55.599.36 1.077.886 1.436 1.58.359.67.526 1.46.526 2.368 0 .91-.167 1.7-.526 2.37-.359.693-.837 1.22-1.436 1.603a3.729 3.729 0 0 1-2.034.574c-.646 0-1.22-.144-1.698-.407a3.775 3.775 0 0 1-1.197-1.005v5.432h-2.201V7.8h2.201v1.268c.263-.407.67-.742 1.173-1.005Zm3.11 2.704a2.352 2.352 0 0 0-.861-.886 2.43 2.43 0 0 0-1.149-.31c-.406 0-.765.095-1.124.31a2.362 2.362 0 0 0-.862.886 2.745 2.745 0 0 0-.335 1.364c0 .526.12.98.335 1.364.216.382.503.693.862.885.359.191.718.31 1.124.31a2.256 2.256 0 0 0 2.01-1.22c.216-.382.335-.86.335-1.387 0-.479-.119-.933-.335-1.316ZM24.526 4.331c0-.359-.023-.718-.047-1.053-.096-.91-.264-1.77-.55-2.608a11.862 11.862 0 0 0-2.633-.43c-.167 0-.335-.025-.502-.025-3.063 0-5.839 1.22-7.873 3.207a10.727 10.727 0 0 0-2.488-.287c-2.321 0-4.475.694-6.27 1.89A11.742 11.742 0 0 0 2.13 6.748c.191.885.478 1.723.861 2.512a11.384 11.384 0 0 0 7.059 5.958 11.225 11.225 0 0 0 5.766 6.509c.766.383 1.604.67 2.465.861a11.485 11.485 0 0 0 1.675-2.034 11.33 11.33 0 0 0 1.795-6.101c0-.838-.096-1.651-.264-2.417a11.231 11.231 0 0 0 3.04-7.705ZM9.452 11.557c0 .36.024.718.047 1.053a9.163 9.163 0 0 1-4.833-5.168 9.097 9.097 0 0 1 5.743-2.058c.287 0 .55.024.837.048a11.413 11.413 0 0 0-1.794 6.125Zm2.44 1.747a8.482 8.482 0 0 1-.167-1.747c0-2.105.718-4.02 1.914-5.551a9.003 9.003 0 0 1 5.288 5.36 9.097 9.097 0 0 1-5.743 2.058c-.43-.048-.861-.072-1.292-.12Zm5.671 6.724a9.122 9.122 0 0 1-4.881-4.379c.167 0 .335.024.502.024 2.322 0 4.475-.694 6.27-1.89.024.239.024.454.024.694a8.92 8.92 0 0 1-1.915 5.55ZM15.386 4.283a9.004 9.004 0 0 1 5.408-1.794c.454 0 .885.023 1.292.095.12.575.167 1.149.167 1.747 0 1.938-.598 3.733-1.65 5.192a11.301 11.301 0 0 0-5.217-5.24Z" fill="#0E6FFF"></path><path d="M10.433 17.874s-.096-.957-1.125-1.938c-1.029-.98-1.986-1.053-1.986-1.053-6.676-1.244-5.551 8.854-5.551 8.854s10.121.766 8.662-5.863Zm-6.509 3.614s-.167-4.738 2.943-4.403c0 0 .455 0 .91.43.454.431.454.886.454.886.431 3.087-4.307 3.087-4.307 3.087Z" fill="#0E6FFF"></path></svg>